<svg width="16" height="16" viewBox="0 0 16 16" fill="none" xmlns="http://www.w3.org/2000/svg">
<g clip-path="url(#clip0_3_975)">
<path fill-rule="evenodd" clip-rule="evenodd" d="M5 1C5 0.734784 4.89464 0.48043 4.70711 0.292893C4.51957 0.105357 4.26522 0 4 0C3.73478 0 3.48043 0.105357 3.29289 0.292893C3.10536 0.48043 3 0.734784 3 1V2H2.4C1.76348 2 1.15303 2.25286 0.702944 2.70294C0.252856 3.15303 0 3.76348 0 4.4L0 6H16V4.4C16 3.76348 15.7471 3.15303 15.2971 2.70294C14.847 2.25286 14.2365 2 13.6 2H13V1C13 0.734784 12.8946 0.48043 12.7071 0.292893C12.5196 0.105357 12.2652 0 12 0C11.7348 0 11.4804 0.105357 11.2929 0.292893C11.1054 0.48043 11 0.734784 11 1V2H5V1ZM16 7.6H0V13.6C0 14.2365 0.252856 14.847 0.702944 15.2971C1.15303 15.7471 1.76348 16 2.4 16H13.6C14.2365 16 14.847 15.7471 15.2971 15.2971C15.7471 14.847 16 14.2365 16 13.6V7.6Z" fill="#29384A"/>
</g>
<defs>
<clipPath id="clip0_3_975">
<rect width="16" height="16" fill="white"/>
</clipPath>
</defs>
</svg>
