<svg width="20" height="18" viewBox="0 0 20 18" fill="none" xmlns="http://www.w3.org/2000/svg">
<path fill-rule="evenodd" clip-rule="evenodd" d="M11.4277 4.29175C11.4277 7.59062 7.85653 9.65241 4.99961 8.00297C3.67377 7.23744 2.85692 5.82282 2.85692 4.29175C2.85692 0.992881 6.42807 -1.06891 9.28499 0.580522C10.6108 1.34606 11.4277 2.76067 11.4277 4.29175ZM18.9271 14.291C19.7518 14.291 20.2672 15.1838 19.8549 15.898C19.6635 16.2294 19.3099 16.4337 18.9271 16.4337H11.7848C10.9601 16.4337 10.4447 15.5409 10.857 14.8266C11.0484 14.4952 11.402 14.291 11.7848 14.291H18.9271ZM7.1423 10.0056C3.19756 10.0054 0 13.2032 0 17.1479C0 17.5423 0.3198 17.8621 0.71423 17.8621H10.3992C8.47485 16.7975 8.42471 14.0489 10.309 12.9145C10.7544 12.6465 11.2647 12.505 11.7848 12.5054H12.5704C11.2147 10.917 9.23047 10.0034 7.1423 10.0056Z" fill="#E31A1A"/>
</svg>
