<svg width="20" height="18" viewBox="0 0 20 18" fill="none" xmlns="http://www.w3.org/2000/svg">
<path fill-rule="evenodd" clip-rule="evenodd" d="M4.44895 4.96563C5.10743 4.96563 5.73894 4.70405 6.20456 4.23843C6.67018 3.77281 6.93176 3.1413 6.93176 2.48281C6.93176 1.82433 6.67018 1.19282 6.20456 0.727199C5.73894 0.261581 5.10743 0 4.44895 0C3.79066 1.38724e-08 3.15933 0.261505 2.69384 0.726987C2.22836 1.19247 1.96686 1.8238 1.96686 2.48209C1.96686 3.14038 2.22836 3.77171 2.69384 4.23719C3.15933 4.70267 3.79066 4.96563 4.44895 4.96563ZM15.5525 4.96563C16.211 4.96563 16.8425 4.70405 17.3081 4.23843C17.7737 3.77281 18.0353 3.1413 18.0353 2.48281C18.0353 1.82433 17.7737 1.19282 17.3081 0.727199C16.8425 0.261581 16.211 0 15.5525 0C14.8942 1.38724e-08 14.2629 0.261505 13.7974 0.726987C13.3319 1.19247 13.0704 1.8238 13.0704 2.48209C13.0704 3.14038 13.3319 3.77171 13.7974 4.23719C14.2629 4.70267 14.8942 4.96563 15.5525 4.96563ZM15.5525 5.48231C14.5561 5.48076 13.5883 5.81525 12.8056 6.43172C13.3987 6.94256 13.8405 7.60618 14.0829 8.35049C14.3253 9.09479 14.359 9.8913 14.1805 10.6534H19.2764C19.4683 10.6534 19.6523 10.5772 19.788 10.4415C19.9238 10.3058 20 10.1217 20 9.92981C20 8.75026 19.5314 7.61902 18.6974 6.78495C17.8633 5.95088 16.732 5.48231 15.5525 5.48231ZM4.44895 5.48231C5.44533 5.48076 6.41311 5.81525 7.19589 6.43172C6.60276 6.94256 6.16099 7.60618 5.91859 8.35049C5.67619 9.09479 5.64243 9.8913 5.82097 10.6534H0.723641C0.53172 10.6534 0.347659 10.5772 0.21195 10.4415C0.0762406 10.3058 0 10.1217 0 9.92981C0.000190029 9.34575 0.115416 8.76745 0.3391 8.22793C0.562783 7.68841 0.890543 7.19823 1.30367 6.78537C1.71679 6.37252 2.20718 6.04508 2.74685 5.82175C3.28652 5.59841 3.86489 5.48356 4.44895 5.48375V5.48231ZM10.0007 12.163C10.3267 12.163 10.6494 12.0988 10.9506 11.974C11.2517 11.8493 11.5253 11.6665 11.7558 11.436C11.9863 11.2055 12.1691 10.9319 12.2939 10.6307C12.4186 10.3296 12.4828 10.0068 12.4828 9.68087C12.4828 9.35492 12.4186 9.03216 12.2939 8.73102C12.1691 8.42988 11.9863 8.15625 11.7558 7.92577C11.5253 7.69529 11.2517 7.51246 10.9506 7.38772C10.6494 7.26299 10.3267 7.19878 10.0007 7.19878C9.34243 7.19878 8.7111 7.46029 8.24562 7.92577C7.78014 8.39125 7.51863 9.02258 7.51863 9.68087C7.51863 10.3392 7.78014 10.9705 8.24562 11.436C8.7111 11.9015 9.34243 12.163 10.0007 12.163ZM5.55322 17.1271C5.55322 16.5431 5.66826 15.9648 5.89177 15.4252C6.11528 14.8856 6.44288 14.3953 6.85587 13.9823C7.26885 13.5693 7.75914 13.2417 8.29874 13.0182C8.83833 12.7947 9.41667 12.6796 10.0007 12.6796C10.5848 12.6796 11.1631 12.7947 11.7027 13.0182C12.2423 13.2417 12.7326 13.5693 13.1456 13.9823C13.5586 14.3953 13.8862 14.8856 14.1097 15.4252C14.3332 15.9648 14.4482 16.5431 14.4482 17.1271C14.4482 17.3191 14.372 17.5031 14.2363 17.6388C14.1006 17.7745 13.9165 17.8508 13.7246 17.8508H6.27687C6.08494 17.8508 5.90088 17.7745 5.76517 17.6388C5.62946 17.5031 5.55322 17.3191 5.55322 17.1271Z" fill="#345976"/>
</svg>
